# xmcd
#
# Track frame offsets:
#	183
#	9125
#	22448
#	35913
#	46590
#	59448
#	72513
#	88933
#	103730
#	122860
#	133370
#	146390
#	157830
#	168510
#	177498
#	190510
#	204060
#	218730
#	229313
#	238955
#	250223
#	260468
#	276268
#	289298
#	299368
#	309860
#
# Disc length: 4280 seconds
#
# Revision: 0
# Processed by: cddbd v1.4PL0 Copyright (c) Steve Scherf et al.
# Submitted via: MusicWizard 6.0.0
#
DISCID=8d10b61a
DTITLE=Anita Carter - Ring Of Fire
DYEAR=1989
DGENRE=Country
TTITLE0=(Love's) Ring Of Fire
TTITLE1=Fair And Tender Ladies
TTITLE2=Satan's Child
TTITLE3=Fly Pretty Swallow
TTITLE4=As The Swallow Goes
TTITLE5=All My Trials
TTITLE6=Voice Of The Bayou
TTITLE7=Sour Grapes
TTITLE8=Johnny, I Hardly Knew You
TTITLE9=My Love
TTITLE10=A Few Short Years Ago
TTITLE11=The Kentuckian Song
TTITLE12=Brian
TTITLE13=Running Back
TTITLE14=Take Me Home
TTITLE15=No, My Love, No
TTITLE16=Farewell
TTITLE17=This Life I'm Living
TTITLE18=My Love Loves Me
TTITLE19=John, John, John
TTITLE20=John Hardy Was A Desperate Little Man
TTITLE21=I Never Will Marry
TTITLE22=In The Highways
TTITLE23=Bury Me Beneath The Willow
TTITLE24=Beautiful Isle O'er The Sea
TTITLE25=The Wildwood Flower
EXTD=(c)1989 Bear Family Germany - Phonogram\nRerelease of Bear Family LP "Ring of Fire - Folk son
EXTD=gs old and new"\nupc 4000127154347
EXTT0=
EXTT1=
EXTT2=
EXTT3=
EXTT4=
EXTT5=
EXTT6=
EXTT7=
EXTT8=
EXTT9=
EXTT10=
EXTT11=
EXTT12=
EXTT13=
EXTT14=
EXTT15=
EXTT16=
EXTT17=
EXTT18=
EXTT19=
EXTT20=
EXTT21=
EXTT22=
EXTT23=
EXTT24=
EXTT25=
PLAYORDER=
